# xmcd CD database file
#
# Track frame offsets:
#	150
#	41744
#	55891
#	82201
#	92526
#	125669
#	182740
#	210083
#	218784
#	231919
#	258352
#
# Disc length: 3798 seconds
#
# Revision: 1
# Processed by: cddbd v1.5.2PL0 Copyright (c) Steve Scherf et al.
# Submitted via: CDex 1.70beta2
#
DISCID=980ed40b
DTITLE=Steven Bernstein - Diaspora Blues
DYEAR=2002
DGENRE=Jazz
TTITLE0=V'Lirushalayim Irchu
TTITLE1=Blessing
TTITLE2=Aveenu Malkenu
TTITLE3=Commentary I
TTITLE4=Lucky
TTITLE5=Misratze B'rachamim
TTITLE6=Chant
TTITLE7=Commentary II
TTITLE8=Post
TTITLE9=N'Kadesh Oz B'kol
TTITLE10=Ribino Shel Olom
EXTD=YEAR: 2002
EXTT0=
EXTT1=
EXTT2=
EXTT3=
EXTT4=
EXTT5=
EXTT6=
EXTT7=
EXTT8=
EXTT9=
EXTT10=
PLAYORDER=
